<!-- Generator: Adobe Illustrator 19.0.1, SVG Export Plug-In  -->
<svg version="1.1"
	 xmlns="http://www.w3.org/2000/svg" xmlns:xlink="http://www.w3.org/1999/xlink" xmlns:a="http://ns.adobe.com/AdobeSVGViewerExtensions/3.0/"
	 x="0px" y="0px" width="930.5px" height="443.8px" viewBox="0 0 930.5 443.8" style="enable-background:new 0 0 930.5 443.8;"
	 xml:space="preserve">
<style type="text/css">
	.st0{fill:#45B29D;}
</style>
<defs>
</defs>
<path class="st0" d="M910.5,337.9H258.6V106.7h651.9c11,0,20,9,20,20v191.2C930.5,329,921.6,337.9,910.5,337.9z"/>
<path class="st0" d="M6.4,236.6l218.4,201.9c12.8,11.8,33.6,2.8,33.6-14.7V20c0-17.4-20.8-26.5-33.6-14.7L6.4,207.2
	C-2.1,215.1-2.1,228.7,6.4,236.6l218.4,201.9c12.8,11.8,33.6,2.8,33.6-14.7V20c0-17.4-20.8-26.5-33.6-14.7L6.4,207.2
	C-2.1,215.1-2.1,228.7,6.4,236.6z"/>
</svg>
