<!-- Generator: Adobe Illustrator 19.0.1, SVG Export Plug-In  -->
<svg version="1.1"
	 xmlns="http://www.w3.org/2000/svg" xmlns:xlink="http://www.w3.org/1999/xlink" xmlns:a="http://ns.adobe.com/AdobeSVGViewerExtensions/3.0/"
	 x="0px" y="0px" width="357.1px" height="357.1px" viewBox="0 0 357.1 357.1" style="enable-background:new 0 0 357.1 357.1;"
	 xml:space="preserve">
<style type="text/css">
	.st0{fill:#45B29D;}
</style>
<defs>
</defs>
<g id="yet6bF.tif_1_">
	<g>
		<path class="st0" d="M357.1,179c-0.8,99.8-81.1,179-180.7,178.1C77.8,356.2-0.8,275.1,0,175.2C0.8,78.2,82-0.8,180,0
			C278.5,0.8,357.9,81,357.1,179z M149.9,177.4c14.2,2.7,27.8,4.6,41.1,8c17.6,4.5,34,11.7,47.2,24.8c10.9,10.8,16.2,23.6,11.5,39
			c-3.2,10.4-10,18.4-18.6,24.8c-6.2,4.6-13.2,8.4-19.9,12.4c-3.1,1.8-4.4,4.3-3,7.5c1.4,3.2,4.2,4,7.6,2.6c2-0.8,4.1-1.5,6.1-2.3
			c22.8-9.2,43.9-21.1,59.8-40.3c12.9-15.5,19.8-33.1,16.4-53.6c-3.5-21.3-16-37-32.3-50c-26-20.7-56.4-31.6-88.6-37.9
			c-9.1-1.8-18.3-3-27.7-4.6c0-9.1,0-17.9,0-26.8c0-4.3-1.5-7.8-5.7-9.7c-4.2-1.9-7.7-0.7-11,2.2c-23.7,20.8-47.4,41.5-71,62.3
			c-5.9,5.2-5.9,11,0,16.2c23.5,20.7,47.1,41.3,70.6,62c3.4,3,7.1,4.4,11.5,2.5c4.4-1.9,5.7-5.7,5.7-10.2c0-7.3,0-14.7,0-22
			C149.5,182.4,149.7,180.6,149.9,177.4z"/>
	</g>
</g>
</svg>
